Coordinates

Units are S.I. units (second, meters, Newtons, ...)
If the header above contains a line with 'inDegrees', this indicates whether rotational values are in degrees (yes) or radians (no).

inDegrees=no
nColumns=21
nRows=27
DataType=double
version=3
OpenSimVersion=4.6-2026-03-31-d6972f9e6
endheader
time	/jointset/ground_pelvis/pelvis_tilt/value	/jointset/ground_pelvis/pelvis_list/value	/jointset/ground_pelvis/pelvis_rotation/value	/jointset/ground_pelvis/pelvis_tx/value	/jointset/ground_pelvis/pelvis_ty/value	/jointset/ground_pelvis/pelvis_tz/value	/jointset/hip_r/hip_flexion_r/value	/jointset/hip_r/hip_adduction_r/value	/jointset/hip_r/hip_rotation_r/value	/jointset/walker_knee_r/knee_angle_r/value	/jointset/patellofemoral_r/knee_angle_r_beta/value	/jointset/ankle_r/ankle_angle_r/value	/jointset/subtalar_r/subtalar_angle_r/value	/jointset/hip_l/hip_flexion_l/value	/jointset/hip_l/hip_adduction_l/value	/jointset/hip_l/hip_rotation_l/value	/jointset/walker_knee_l/knee_angle_l/value	/jointset/patellofemoral_l/knee_angle_l_beta/value	/jointset/ankle_l/ankle_angle_l/value	/jointset/subtalar_l/subtalar_angle_l/value
144.996	-0.03715114228051174	-0.07455998886641135	1.286914663242914	0.8725524802537009	1.042253034980696	-1.027500922726067	0.4392768373825823	0.08969475613399858	0.03564161735642276	0.1595825027331536	0.1595825022240964	0.07274343950103444	-0.06664508560103409	-0.2022159330560183	0.07530536152584097	-0.2949554223596142	0.6690768892962556	0.6690768898986086	-0.5809471303628699	-0.3637837680140265
145	-0.03776751379747937	-0.07240892464899873	1.281957240767019	0.8732621681966406	1.040845978926833	-1.027187914817332	0.4353156789465457	0.09210503641305823	0.04016891381795561	0.1615131795079279	0.1615131791131755	0.0739096730357051	-0.07247025274469605	-0.1999505431883295	0.07425619228617875	-0.2990362800927739	0.6949660497543534	0.6949660503525594	-0.5888973933381572	-0.3805341279662482
145.004	-0.03777428690244784	-0.06948253247139854	1.276968341229907	0.8739569478187901	1.039357321793838	-1.026770347537467	0.430795879208018	0.09483465864659542	0.04569912946190839	0.1661829815870654	0.1661829813264211	0.07410643138073675	-0.08164039828389083	-0.1979512556426508	0.07272186621985505	-0.3028299892604698	0.722163421453355	0.7221634220334577	-0.5959592242363967	-0.3977620823557718
145.008	-0.03714050344752885	-0.06578147284780399	1.271956453521706	0.8746345167490133	1.037790299616308	-1.026251041195564	0.4257301966239223	0.09790952773199958	0.05219063827583934	0.1735290186442383	0.1735290185330308	0.07339009797539965	-0.0940248978840947	-0.196256489775562	0.07067201320878565	-0.3063598337594944	0.7505788379677176	0.750578838516083	-0.602182891330565	-0.4152124906499441
145.012	-0.03584206709403826	-0.06132544324300779	1.266926635277323	0.8752928371437417	1.036146783941698	-1.025632877308763	0.4201538037286063	0.1013580941347122	0.05958120051539292	0.1834792148499458	0.183479214897686	0.07184182958132275	-0.1094450933834202	-0.1948845994804448	0.06807650010784018	-0.309655139809526	0.7801191620839494	0.7801191625886513	-0.6076181328014448	-0.4326307106739708
145.016	-0.03386252612221336	-0.05615401010607109	1.261880664837121	0.8759300723005645	1.034427459788013	-1.02491876134403	0.4141237685366326	0.1052102043345748	0.0677886514078424	0.1959516587565657	0.1959516589659293	0.06956747929404898	-0.1276762426535876	-0.1938322031901042	0.06490618801472786	-0.3127486603829374	0.8106886719348904	0.8106886723865161	-0.6123130590297604	-0.4497703144911112
145.02	-0.03119387838950653	-0.05032660880548922	1.256817561824214	0.876544510879686	1.032632091608316	-1.024111623302069	0.4077173912329732	0.1094953992466356	0.07671229338747257	0.2108534738471657	0.2108534742135943	0.06669649792766372	-0.1484504368211652	-0.1930733423205755	0.06113394576842718	-0.3156737148786882	0.842189220558662	0.8421892209504568	-0.6163128850935453	-0.4664000101576608
145.024	-0.02783735222449216	-0.04392162821026036	1.25173448651484	0.877134482376087	1.030759871330723	-1.023214457201117	0.4010293836554458	0.114240703811652	0.08623485019448016	0.2280792657781042	0.2280792662902098	0.0633798562336878	-0.1714602608534867	-0.1925595808791834	0.05673588687286511	-0.3184611822064722	0.8745201810393494	0.874520181366999	-0.619658479820593	-0.4823093570427196
145.028	-0.02380407752527074	-0.03703459027109958	1.246627982597304	0.8776982711810404	1.028809831714878	-1.022230396219663	0.3941679887703508	0.1194680564630512	0.09622487911922042	0.2475092615349238	0.2475092621757311	0.05978705717701134	-0.1963631378158955	-0.1922210682962598	0.05169273449760857	-0.3211364841350541	0.9075782303647645	0.9075782306262222	-0.6223847778715433	-0.4973130601915168
145.032	-0.01911555534540552	-0.02977557057703983	1.241495452424764	0.8782340437278184	1.026781295922837	-1.021162813098181	0.3872502915840138	0.1251916396427221	0.1065396966983009	0.2690072927811679	0.2690072935300228	0.05610212636481771	-0.2227867686402255	-0.1919684452840314	0.04599116935861792	-0.3237167893086713	0.9412570576249478	0.9412570578205071	-0.6245192583605763	-0.5112539398588406
145.036	-0.01380383633876416	-0.02226608473006151	1.23633670658517	0.8787398060923985	1.024674326781528	-1.020015430780273	0.3803970738137273	0.1314154311184552	0.1170289364047341	0.2924188301850882	0.2924188310198765	0.05251840383483211	-0.2503363324505307	-0.1916953944519155	0.03962498995735335	-0.3262087284907375	0.9754470948301037	0.9754470949626862	-0.6260807685858228	-0.5240048726670733
145.04	-0.007911344044114416	-0.01463559229719367	1.23115547047211	0.8792133979860342	1.022490145793477	-1.018792430743355	0.3737275109913453	0.1381311905663896	0.1275386088539684	0.3175693384854466	0.3175693393846988	0.04923233350492485	-0.2786034606762149	-0.1912817113894816	0.03259598167731956	-0.3286067911325288	1.010035343917059	1.010035343992576	-0.6270788374275882	-0.5354698541200937
145.044	-0.001490333317922862	-0.007017652644076799	1.225960805951737	0.8796525121786407	1.020231505088864	-1.017498551789178	0.3673538950609015	0.1453169094987636	0.1379152130843908	0.3442632374176986	0.3442632383622019	0.04643694772629117	-0.3071759669832267	-0.1905968765184161	0.02491451606884586	-0.3308923540087753	1.044905334378857	1.044905334406522	-0.6275134348947075	-0.5455840507369224
145.048	0.005397981339380496	0.0004542277922441234	1.22076841819603	0.8800547240583683	1.017902999342867	-1.01613917310384	0.3613765509280716	0.1529356863695213	0.148009440048682	0.3722837116034693	0.3722837125771752	0.04431582829982184	-0.3356470823130913	-0.1895040873760553	0.01659995842429762	-0.3330332103417425	1.079937229861825	1.079937229854337	-0.6273751083102067	-0.5543127001045284
145.052	0.01268457905125983	0.00765091537218711	1.215601769923002	0.8804175243913206	1.015511299724661	-1.014720372912259	0.3558791846067024	0.1609350537429488	0.1576792555523735	0.4013935496670299	0.401393550657303	0.04303802083125273	-0.3636235244983316	-0.1878646077765158	0.007680927359849256	-0.3349835534332647	1.115008105413536	1.115008105386971	-0.6266455065190631	-0.5616489395586222
145.056	0.02029401251389737	0.01445188913809432	1.210492869184749	0.8807383593860694	1.013065286738082	-1.013248952107677	0.3509249700585712	0.1692468673090206	0.1667923898022843	0.4313371262645015	0.4313371272619458	0.04275397479304132	-0.3907324494302105	-0.1855421933141424	-0.001804607747192038	-0.3366844996605574	1.149992421985528	1.149992421958637	-0.625298321346714	-0.5676108167156757
145.06	0.02814595322208988	0.02074908135889491	1.20548256766647	0.8810146898164687	1.010576057984747	-1.011732412498281	0.3465537084786124	0.177787915873444	0.1752284146796498	0.4618435525977315	0.4618435535958055	0.04359220832603952	-0.4166278845159347	-0.1824072876834175	-0.01180945010416316	-0.3380653147663782	1.184762726457694	1.184762726450502	-0.6233006244170257	-0.572237781661927
145.064	0.03615685634265255	0.0264500493647139	1.200620262304203	0.8812440770218954	1.008056798988646	-1.010178884503152	0.3427802742334519	0.1864613723963805	0.1828805900006106	0.4926308963089545	0.4926308973034603	0.04565633204908223	-0.4409972475820663	-0.1783407364664617	-0.02227758027474425	-0.3390454261518114	1.219190584558389	1.219190584590342	-0.6206145535362256	-0.5755869248478808
145.068	0.04424172605265157	0.03148040636615779	1.195963023337063	0.8814242878245309	1.005522530370085	-1.00859700906482	0.3395942930065509	0.1951590516936973	0.1896574837449541	0.5234112549675642	0.5234112559560224	0.04902246760826251	-0.4635678102939661	-0.1732369616318793	-0.03314484131330042	-0.33953709301205	1.253147697642565	1.25314769773078	-0.6171993305376049	-0.5777291680806772
145.072	0.05231595522801614	0.03578559069636999	1.191574250876686	0.8815533999704975	1.002989762435157	-1.006995785590501	0.3369608180566113	0.2037642934710167	0.1954842288285403	0.5538964190001843	0.5538964199810437	0.05373750241509364	-0.4841122508382997	-0.1670066852578781	-0.04433983228744838	-0.3394484912450607	1.286507105618649	1.286507105776717	-0.6130136080278398	-0.5787455971426244
145.076	0.06029717277189454	0.03933200635845459	1.187521942544001	0.8816298951983614	1.000476085614201	-1.005384396967487	0.3348218274842223	0.212155273552569	0.200303346208651	0.5838038529500982	0.5838038539216972	0.05981854110636695	-0.5024525401519147	-0.1595792234286332	-0.05578493175153269	-0.3386870249578778	1.319144389072893	1.319144389310297	-0.6080180950447616	-0.5787241030445925
145.08	0.0681070080883282	0.04210745284963251	1.183876628586355	0.8816527376387763	0.9979997164466502	-1.003772019401322	0.3330984846104691	0.2202086073012613	0.2040752143286291	0.612862697716307	0.612862698675672	0.06725353010637281	-0.5184620041580487	-0.1509042318234735	-0.06739741932600321	-0.3371627479063626	1.350938828060872	1.350938828382678	-0.6021783319175918	-0.5777564292448084
145.084	0.07567270164942506	0.04412076821856626	1.180709057312924	0.8816214384461298	0.9955790204365497	-1.002167625435729	0.331694086366238	0.2278031307516416	0.2067782978057442	0.6408194639683452	0.6408194649101584	0.07600280544126517	-0.5320657760009565	-0.1409527836191469	-0.07909069869054239	-0.3347917748450999	1.38177449050194	1.381774490908299	-0.5954674410069313	-0.5759356492703172
145.088	0.08292851746746613	0.04540068515117287	1.178087755413939	0.8815361048892523	0.9932320381780622	-1.000579791337437	0.3304975564485589	0.2348237186129686	0.2084091670602475	0.6674431041631295	0.667443105079197	0.08600131884475712	-0.5432398679762083	-0.1297177368340607	-0.0907756297782078	-0.331499532986413	1.411541215901088	1.411541216386363	-0.5878686648330957	-0.5733540386885466
145.092	0.08981691253939754	0.04599389279178905	1.176076593649052	0.8813974706998309	0.9909760354728532	-0.9990165200779469	0.3293873970047612	0.2411649878113864	0.2089822560410807	0.692529239023647	0.6925292399029609	0.09716130905382264	-0.5520090386202219	-0.117213332192201	-0.1023619834901759	-0.3272237178073101	1.440135476614815	1.440135477166699	-0.5793774521576408	-0.5701012449527032
145.096	0.09628941994504286	0.04596228914321551	1.174732460572856	0.8812069052084802	0.9888270908236453	-0.9974850889401453	0.3282360720211372	0.2467347461503798	0.2085292763023553	0.7159034152480384	0.715903416077285	0.1093751502828504	-0.5584436354567017	-0.1034739532387589	-0.1137600314146414	-0.3219168690669282	1.467461114639657	1.467461115238967	-0.5700028405103986	-0.5662626722474885
145.1	0.1023072441402468	0.04537957466234517	1.174103132180693	0.8809663991553984	0.986799742068651	-0.9959919296973413	0.3269146238061629	0.2514570361639596	0.207098250872987	0.7374232956400169	0.7374232964043286	0.122518161728049	-0.5626556044927209	-0.08855216418730202	-0.124882238060653	-0.3155484978052633	1.493429917784467	1.493429918406129	-0.559768053001688	-0.5619181313426957
